<svg xmlns="http://www.w3.org/2000/svg" xmlns:xlink="http://www.w3.org/1999/xlink" width="2000" zoomAndPan="magnify" viewBox="0 0 1500 1499.999933" height="2000" preserveAspectRatio="xMidYMid meet" version="1.0"><defs><clipPath id="8c5486bd69"><path d="M 423 824 L 1077 824 L 1077 1446.410156 L 423 1446.410156 Z M 423 824 " clip-rule="nonzero"/></clipPath><clipPath id="922c78a9db"><path d="M 475 53.660156 L 1061 53.660156 L 1061 890 L 475 890 Z M 475 53.660156 " clip-rule="nonzero"/></clipPath></defs><g clip-path="url(#8c5486bd69)"><path fill="#d68c45" d="M 1076.722656 901.285156 C 1075.941406 920.546875 1074.273438 941.285156 1071.480469 966.550781 C 1069.101562 988.0625 1065.902344 1009.855469 1061.976562 1031.328125 C 1061.644531 1033.109375 1061.335938 1034.90625 1061.027344 1036.714844 C 1059.492188 1045.726562 1057.902344 1055.046875 1053.132812 1062.742188 C 1046.636719 1073.179688 1033.113281 1078.84375 1025.011719 1081.417969 C 1022.8125 1101.605469 1020.21875 1123.421875 1017.304688 1146.277344 L 1015.941406 1157.027344 C 1013.664062 1174.960938 1011.316406 1193.503906 1008.652344 1211.707031 C 1007.269531 1221.160156 1006.121094 1230.824219 1005.011719 1240.167969 C 1003.566406 1252.324219 1002.074219 1264.894531 1000.042969 1277.183594 C 997.558594 1292.234375 994.679688 1307.476562 991.898438 1322.21875 C 990.644531 1328.855469 989.390625 1335.492188 988.167969 1342.136719 C 985.097656 1358.773438 979.703125 1371.777344 971.675781 1381.894531 C 965.167969 1390.003906 957.65625 1396.382812 949.359375 1400.851562 C 920.378906 1416.4375 894.59375 1427.035156 870.53125 1433.238281 C 844.796875 1439.871094 817.21875 1444.144531 786.222656 1446.304688 C 783.652344 1446.476562 780.019531 1446.550781 775.71875 1446.550781 C 756.921875 1446.550781 725.339844 1445.132812 713.703125 1444.304688 C 682.371094 1442.121094 654.898438 1437.90625 629.714844 1431.417969 C 602.902344 1424.503906 577.089844 1414.265625 550.792969 1400.128906 L 548.867188 1399.085938 C 540.835938 1394.765625 532.53125 1390.296875 526.699219 1383.007812 C 517.347656 1371.183594 513.558594 1355.765625 511.078125 1342.234375 C 506.664062 1318.328125 502.921875 1297.050781 499.636719 1277.199219 C 497.539062 1264.523438 495.894531 1251.570312 494.304688 1239.042969 C 493.171875 1230.09375 491.996094 1220.839844 490.671875 1211.773438 C 488.722656 1198.457031 487.160156 1184.875 485.65625 1171.742188 C 484.679688 1163.242188 483.707031 1154.738281 482.621094 1146.257812 C 481.882812 1140.445312 481.121094 1134.625 480.359375 1128.792969 C 478.339844 1113.285156 476.253906 1097.265625 474.523438 1081.523438 C 463.371094 1077.878906 453.832031 1070.707031 448.242188 1061.722656 C 442.328125 1052.191406 440.179688 1040.558594 438.457031 1031.214844 C 434.664062 1010.527344 430.753906 988.492188 428.324219 966.550781 C 426.023438 945.820312 424.398438 923.859375 423.492188 901.261719 C 423.195312 893.859375 426.75 887.148438 433.765625 881.859375 C 452.664062 867.59375 478.257812 856.429688 509.835938 848.671875 C 538.121094 841.726562 566.515625 837.675781 587.246094 834.722656 L 592 834.042969 C 614.5 830.8125 642.503906 826.789062 670.710938 825.441406 C 688.316406 824.601562 706.457031 825.011719 723.992188 825.417969 C 732.511719 825.609375 741.320312 825.8125 749.851562 825.863281 L 759.589844 825.914062 C 784.355469 826.042969 807.746094 826.160156 828.910156 827.203125 C 854.894531 828.480469 881.378906 831.039062 907.625 834.808594 C 910.828125 835.265625 914.238281 835.742188 917.820312 836.238281 C 938.363281 839.089844 963.921875 842.632812 989.835938 849 C 1015.863281 855.394531 1045.390625 864.132812 1067.058594 880.46875 C 1073.34375 885.222656 1077.046875 893.199219 1076.722656 901.285156 Z M 1076.722656 901.285156 " fill-opacity="1" fill-rule="nonzero"/></g><path fill="#bf773c" d="M 1052.5 895.699219 C 1052.5 900.960938 1049.289062 906.585938 1043.46875 911.535156 C 1034.148438 919.460938 1020.417969 922.855469 1016.433594 923.707031 C 1007.375 925.636719 997.367188 927.417969 988.773438 928.90625 C 983.378906 929.847656 977.789062 930.582031 971.871094 931.363281 C 968.300781 931.832031 964.648438 932.316406 960.925781 932.859375 C 957.058594 933.421875 953.199219 934.171875 949.105469 934.96875 C 943.972656 935.964844 938.667969 936.996094 933.179688 937.671875 C 929.390625 938.136719 925.621094 938.707031 921.628906 939.316406 C 916.335938 940.117188 910.863281 940.945312 905.28125 941.519531 C 900.066406 942.058594 894.851562 942.390625 889.339844 942.746094 C 885.335938 943 881.289062 943.261719 877.207031 943.605469 C 873.671875 943.902344 870.101562 944.246094 866.507812 944.597656 C 860.867188 945.144531 855.039062 945.710938 849.167969 946.097656 C 844.191406 946.429688 839.042969 946.46875 834.070312 946.507812 C 829.808594 946.535156 825.394531 946.574219 821.027344 946.785156 C 816.796875 946.996094 812.433594 947.457031 808.214844 947.90625 C 803.246094 948.433594 798.105469 948.976562 792.957031 949.140625 C 787.105469 949.324219 781.078125 949.355469 775.257812 949.382812 C 771.785156 949.402344 768.296875 949.421875 764.800781 949.46875 C 758.027344 949.558594 751.074219 949.515625 744.34375 949.46875 L 736.652344 949.421875 C 732.84375 949.410156 729.03125 949.457031 725.195312 949.507812 C 721.871094 949.554688 718.480469 949.597656 715.074219 949.597656 C 712.886719 949.597656 710.683594 949.578125 708.496094 949.527344 C 703.441406 949.414062 698.300781 948.941406 693.332031 948.484375 C 689.09375 948.097656 684.710938 947.691406 680.394531 947.515625 C 675.101562 947.289062 669.726562 946.804688 664.527344 946.332031 C 660.539062 945.972656 656.410156 945.597656 652.332031 945.34375 C 648.457031 945.105469 644.570312 944.957031 640.675781 944.800781 C 635.292969 944.589844 629.722656 944.375 624.226562 943.914062 C 617.746094 943.378906 611.167969 942.644531 604.808594 941.9375 C 601.953125 941.617188 599.09375 941.300781 596.238281 940.996094 C 588.363281 940.164062 580.378906 939.117188 572.65625 938.109375 L 568.3125 937.546875 C 564.183594 937.011719 559.9375 936.667969 555.832031 936.332031 C 550.722656 935.914062 545.445312 935.488281 540.289062 934.683594 C 536.355469 934.070312 532.324219 933.582031 528.425781 933.101562 C 523.144531 932.453125 517.683594 931.789062 512.363281 930.8125 C 507.257812 929.871094 502.195312 928.433594 497.300781 927.050781 C 493.285156 925.910156 489.132812 924.734375 485.023438 923.851562 C 476.753906 922.085938 466.265625 916.707031 458.925781 910.46875 C 452.417969 904.933594 449.117188 899.53125 449.117188 894.414062 C 449.117188 890.585938 450.992188 887.050781 454.6875 883.90625 C 461.308594 878.28125 470.425781 874.800781 481.65625 870.828125 C 491.617188 867.304688 501.191406 864.542969 510.105469 862.617188 C 516.886719 861.148438 523.652344 859.964844 529.628906 858.917969 C 532.964844 858.332031 536.140625 857.777344 539.085938 857.210938 C 548.839844 855.355469 557.996094 853.847656 567.074219 852.609375 C 571.988281 851.9375 577.007812 851.679688 582.320312 851.410156 C 586.558594 851.191406 590.9375 850.96875 595.339844 850.519531 C 598.757812 850.164062 602.222656 849.753906 605.734375 849.332031 C 611.476562 848.644531 617.417969 847.933594 623.476562 847.464844 C 627.507812 847.148438 631.5 846.683594 635.722656 846.1875 C 640.902344 845.578125 646.257812 844.949219 651.664062 844.640625 C 656.65625 844.351562 661.816406 844.371094 666.796875 844.398438 C 671.121094 844.421875 675.578125 844.4375 679.988281 844.257812 C 684.328125 844.085938 688.792969 843.617188 693.113281 843.164062 C 698.046875 842.644531 703.152344 842.109375 708.25 841.984375 C 711.230469 841.914062 714.226562 841.832031 717.222656 841.746094 C 723.554688 841.570312 730.097656 841.382812 736.570312 841.328125 C 741.898438 841.277344 747.296875 841.4375 752.53125 841.585938 C 756.648438 841.703125 760.773438 841.824219 764.894531 841.847656 C 769.902344 841.878906 774.953125 842.375 779.835938 842.851562 C 784.222656 843.277344 788.753906 843.722656 793.183594 843.820312 C 797.414062 843.910156 801.707031 843.867188 805.867188 843.835938 C 811.003906 843.789062 816.316406 843.742188 821.511719 843.941406 C 825.5625 844.101562 829.597656 844.167969 833.613281 844.238281 C 838.949219 844.328125 844.464844 844.429688 849.824219 844.734375 C 855.28125 845.042969 860.710938 845.65625 865.964844 846.25 C 869.9375 846.699219 874.042969 847.160156 878.027344 847.476562 C 882.496094 847.820312 887.007812 847.863281 891.375 847.902344 C 896.339844 847.945312 901.46875 847.992188 906.378906 848.507812 C 912.722656 849.171875 918.910156 850.136719 924.890625 851.070312 C 928.125 851.574219 931.3125 852.074219 934.453125 852.507812 C 942.417969 853.621094 952.800781 855.136719 962.457031 856.980469 C 969.089844 858.246094 976.769531 859.917969 984.894531 861.6875 L 991.292969 863.078125 C 1002.3125 865.460938 1011.644531 868.023438 1019.820312 870.914062 C 1028.988281 874.15625 1039.375 878.125 1046.542969 884.21875 C 1050.496094 887.582031 1052.503906 891.449219 1052.5 895.699219 Z M 1052.5 895.699219 " fill-opacity="1" fill-rule="nonzero"/><path fill="#805a35" d="M 1021.484375 922.425781 C 1019.285156 923.058594 1017.503906 923.476562 1016.433594 923.703125 C 1007.375 925.632812 997.371094 927.414062 988.773438 928.90625 C 983.382812 929.84375 977.792969 930.578125 971.875 931.359375 C 968.304688 931.832031 964.652344 932.3125 960.929688 932.855469 C 957.0625 933.421875 953.199219 934.167969 949.109375 934.964844 C 943.976562 935.964844 938.667969 936.992188 933.183594 937.667969 C 929.394531 938.136719 925.621094 938.707031 921.628906 939.3125 C 916.339844 940.113281 910.867188 940.945312 905.285156 941.515625 C 900.066406 942.054688 894.855469 942.386719 889.339844 942.742188 C 885.339844 942.996094 881.292969 943.257812 877.210938 943.601562 C 873.675781 943.898438 870.105469 944.242188 866.507812 944.59375 C 860.871094 945.140625 855.039062 945.707031 849.171875 946.097656 C 844.195312 946.425781 839.046875 946.46875 834.074219 946.503906 C 829.808594 946.535156 825.398438 946.570312 821.03125 946.785156 C 816.800781 946.992188 812.4375 947.453125 808.21875 947.902344 C 803.25 948.429688 798.105469 948.972656 792.960938 949.136719 C 787.109375 949.320312 781.082031 949.351562 775.257812 949.382812 C 771.789062 949.398438 768.300781 949.417969 764.804688 949.464844 C 758.03125 949.554688 751.074219 949.511719 744.347656 949.464844 L 736.65625 949.421875 C 732.847656 949.40625 729.035156 949.453125 725.199219 949.503906 C 721.875 949.550781 718.480469 949.59375 715.078125 949.59375 C 712.886719 949.59375 710.6875 949.574219 708.496094 949.527344 C 703.445312 949.410156 698.304688 948.9375 693.335938 948.480469 C 689.097656 948.09375 684.714844 947.6875 680.398438 947.511719 C 675.105469 947.289062 669.730469 946.800781 664.53125 946.328125 C 660.539062 945.96875 656.414062 945.59375 652.335938 945.339844 C 648.460938 945.101562 644.574219 944.953125 640.679688 944.800781 C 635.292969 944.585938 629.726562 944.371094 624.230469 943.910156 C 617.75 943.375 611.171875 942.640625 604.808594 941.933594 C 601.957031 941.613281 599.097656 941.296875 596.242188 940.992188 C 588.367188 940.160156 580.382812 939.117188 572.660156 938.109375 L 568.316406 937.542969 C 564.183594 937.007812 559.9375 936.664062 555.835938 936.328125 C 550.726562 935.910156 545.445312 935.484375 540.289062 934.679688 C 536.359375 934.070312 532.328125 933.578125 528.429688 933.097656 C 523.148438 932.453125 517.6875 931.785156 512.367188 930.808594 C 508.167969 930.035156 504.007812 928.925781 499.9375 927.785156 C 499.183594 926.195312 499.1875 924.257812 500.042969 922.394531 C 512.867188 894.363281 547.28125 880.785156 576.082031 889.578125 C 579.183594 881.714844 584.203125 874.636719 590.574219 869.054688 C 605.488281 855.988281 625.300781 850.957031 644.71875 854.390625 C 662.03125 857.449219 677.90625 867.09375 690.125 879.6875 C 694.019531 873.859375 699.207031 868.921875 705.101562 865.113281 C 719.890625 855.554688 738.820312 853.480469 755.394531 859.292969 C 771.027344 864.773438 784.152344 875.882812 793.136719 889.683594 C 814.660156 879.929688 840.914062 883.132812 859.535156 897.683594 C 882.714844 884.007812 912.914062 883.613281 936.492188 896.554688 C 949.25 885.066406 967.699219 880.257812 984.410156 884.589844 C 1001.996094 889.152344 1016.269531 903.488281 1021.261719 920.855469 C 1021.417969 921.410156 1021.476562 921.925781 1021.484375 922.425781 Z M 1021.484375 922.425781 " fill-opacity="1" fill-rule="nonzero"/><g clip-path="url(#922c78a9db)"><path fill="#a7c957" d="M 1060.074219 517.25 L 1046.46875 554.824219 C 1013.679688 645.371094 913.675781 692.199219 823.105469 659.417969 L 788.984375 647.070312 C 782.023438 655.695312 775.753906 664.828125 770.46875 674.304688 C 770.414062 674.398438 770.367188 674.496094 770.3125 674.589844 C 769.980469 686.914062 770.113281 699.257812 770.898438 711.605469 C 771.898438 727.414062 773.300781 743.21875 774.972656 758.992188 C 778.414062 790.535156 783.179688 821.984375 789.710938 853.171875 C 791.609375 864.117188 792.246094 874.488281 791.554688 883.890625 C 789.378906 885.542969 787.367188 887.40625 785.625 889.472656 C 776.421875 884.222656 764.175781 884.351562 755.089844 889.808594 C 748.074219 881.777344 738.960938 875.792969 728.683594 872.496094 C 724.617188 871.1875 720.3125 870.382812 715.992188 870.03125 C 715.976562 869.074219 715.972656 868.109375 715.976562 867.132812 C 715.980469 866.804688 715.988281 866.472656 715.996094 866.140625 C 716.007812 865.308594 716.023438 864.476562 716.050781 863.632812 C 716.066406 863.046875 716.101562 862.453125 716.128906 861.859375 C 716.160156 861.25 716.179688 860.636719 716.214844 860.019531 C 716.289062 858.789062 716.371094 857.550781 716.480469 856.304688 C 716.601562 855.230469 716.71875 854.160156 716.839844 853.085938 C 720.449219 821.644531 723.628906 790.394531 726.585938 759.230469 L 731.222656 710.953125 C 732.160156 700.609375 732.863281 690.261719 733.394531 679.90625 C 733.253906 678.902344 733.09375 677.902344 732.933594 676.898438 C 730.996094 666.816406 724.613281 647.550781 724.582031 647.457031 C 724.019531 646 723.433594 644.558594 722.757812 643.152344 L 722.195312 642.011719 L 687.355469 648.636719 C 685.207031 649.042969 683.0625 649.394531 680.917969 649.722656 C 679.191406 649.988281 677.460938 650.226562 675.738281 650.4375 C 673.386719 650.722656 671.035156 650.964844 668.691406 651.15625 C 666.300781 651.351562 663.914062 651.496094 661.53125 651.59375 C 661.214844 651.605469 660.894531 651.621094 660.578125 651.632812 C 576.066406 654.550781 499.722656 595.546875 483.433594 509.914062 L 475.96875 470.660156 L 515.230469 463.199219 C 525.582031 461.230469 535.890625 460.21875 546.070312 460.105469 C 628.953125 459.183594 703.125 517.660156 719.15625 601.917969 L 723.125 622.796875 C 724.726562 624.675781 726.355469 626.542969 727.796875 628.550781 C 732.46875 634.304688 734.910156 638.558594 734.910156 638.558594 L 734.90625 638.628906 L 734.910156 638.558594 C 735.265625 630.503906 735.621094 622.441406 736.167969 614.390625 C 737.324219 598.28125 739.175781 582.214844 741.234375 566.15625 C 744.550781 540.867188 748.515625 515.585938 753.96875 490.496094 C 753.835938 479.867188 753.136719 469.171875 751.816406 458.539062 C 751.832031 458.5625 751.855469 458.570312 751.871094 458.589844 C 751.671875 456.972656 751.464844 455.359375 751.234375 453.75 C 750.84375 449.988281 750.039062 446.316406 749.441406 442.582031 L 749.207031 441.234375 L 727.835938 439.226562 C 722.804688 438.75 717.859375 438.03125 713.003906 437.070312 C 710.578125 436.589844 708.179688 436.054688 705.800781 435.460938 C 702.234375 434.566406 698.726562 433.542969 695.277344 432.402344 C 632.042969 411.410156 589.296875 348.984375 595.800781 279.832031 L 598.941406 246.441406 L 613.363281 247.796875 C 613.363281 247.796875 613.363281 247.796875 613.359375 247.796875 L 632.335938 249.578125 C 643.65625 250.644531 654.550781 252.96875 664.898438 256.402344 C 666.050781 256.78125 667.195312 257.179688 668.328125 257.589844 C 677.417969 260.859375 686.058594 264.992188 694.167969 269.882812 C 696.195312 271.105469 698.191406 272.375 700.148438 273.691406 C 706.027344 277.636719 711.59375 281.996094 716.8125 286.714844 C 718.546875 288.289062 720.25 289.90625 721.910156 291.558594 C 751.785156 321.324219 768.628906 363.703125 764.371094 408.96875 L 762.089844 433.253906 C 762.089844 433.253906 762.089844 433.246094 762.089844 433.242188 L 761.777344 436.535156 L 762.648438 439.289062 C 763.445312 441.925781 764.34375 444.539062 765.152344 447.183594 C 765.214844 446.988281 765.269531 446.789062 765.328125 446.597656 L 769.003906 434.847656 L 773.132812 423.191406 L 777.148438 411.992188 C 778.425781 408.351562 779.855469 404.738281 781.011719 401.058594 L 784.488281 390 C 785.675781 386.3125 786.539062 382.554688 787.582031 378.832031 C 795.53125 348.945312 799.398438 317.914062 798.675781 286.753906 C 798.632812 284.6875 798.566406 282.628906 798.488281 280.566406 C 798.476562 280.226562 798.453125 279.890625 798.4375 279.550781 C 798.359375 277.757812 798.273438 275.960938 798.164062 274.171875 C 798.15625 274.050781 798.148438 273.929688 798.140625 273.808594 C 797.355469 261.242188 795.820312 248.699219 793.679688 236.210938 L 793.703125 236.191406 C 793.703125 236.191406 793.707031 236.207031 793.707031 236.210938 C 793.101562 232.65625 792.441406 229.113281 791.734375 225.570312 L 776.351562 220.847656 C 719.980469 203.550781 686.777344 146.492188 698.0625 89.898438 C 698.8125 86.125 699.761719 82.355469 700.914062 78.601562 L 708.578125 53.660156 L 719.351562 56.964844 L 720.710938 57.382812 L 733.527344 61.316406 C 752.316406 67.085938 768.53125 77.273438 781.382812 90.386719 C 809.65625 119.234375 821.652344 162.253906 808.957031 203.578125 L 803.382812 221.714844 C 803.382812 221.714844 803.382812 221.710938 803.382812 221.710938 L 802.957031 223.09375 C 806.992188 238.09375 810.25 253.359375 812.492188 268.835938 C 812.523438 269.042969 812.550781 269.246094 812.578125 269.449219 C 812.90625 271.746094 813.210938 274.050781 813.496094 276.359375 C 813.566406 276.957031 813.644531 277.554688 813.714844 278.15625 C 814.003906 280.632812 814.28125 283.113281 814.515625 285.597656 L 814.507812 284.277344 C 814.160156 215.945312 869.285156 160.269531 937.632812 159.925781 L 953.746094 159.84375 C 953.746094 159.84375 953.742188 159.84375 953.742188 159.84375 L 965.996094 159.777344 L 966.140625 188.132812 C 966.484375 256.464844 911.359375 312.136719 843.011719 312.484375 L 818.039062 312.609375 C 818.039062 312.609375 818.039062 312.613281 818.039062 312.613281 L 816.269531 318.050781 C 816.230469 318.167969 816.191406 318.28125 816.15625 318.398438 C 816.242188 340.265625 814.339844 362.210938 810.425781 383.808594 C 809.652344 387.84375 809.050781 391.933594 808.128906 395.9375 L 805.441406 407.984375 C 804.546875 412.007812 803.378906 415.941406 802.359375 419.933594 L 799.277344 431.570312 L 796.328125 442.761719 L 793.769531 454.101562 C 792.402344 459.664062 791.386719 465.351562 790.3125 471.019531 C 792.136719 468.988281 794.035156 467.015625 795.84375 464.988281 L 799.824219 460.636719 C 801.179688 459.210938 802.601562 457.847656 803.984375 456.453125 C 805.617188 454.839844 807.230469 453.210938 808.847656 451.597656 L 813.578125 434.015625 C 831.296875 368.164062 891.238281 324.945312 956.429688 325.65625 C 968.5 325.789062 980.753906 327.429688 992.953125 330.707031 L 1025.34375 339.417969 L 1016.632812 371.804688 C 998.914062 437.65625 938.972656 480.875 873.777344 480.164062 C 861.707031 480.03125 849.453125 478.390625 837.257812 475.113281 L 810.5625 467.933594 C 810.300781 468.28125 810.027344 468.625 809.769531 468.976562 L 808.207031 471.226562 L 806.527344 473.628906 C 805.1875 475.617188 803.785156 477.550781 802.4375 479.519531 C 801.660156 480.65625 800.894531 481.804688 800.183594 482.988281 C 797.851562 486.5625 795.621094 490.191406 793.460938 493.863281 C 791.300781 497.535156 789.234375 501.25 787.246094 505.007812 C 785.972656 507.414062 784.722656 509.832031 783.519531 512.269531 C 780.867188 531.394531 778.796875 550.65625 777.175781 569.984375 C 775.792969 585.625 775.046875 601.347656 773.863281 617.039062 C 773.296875 625.503906 772.644531 633.96875 772.039062 642.445312 C 774.582031 640.0625 777.164062 637.734375 779.777344 635.453125 C 784.140625 631.589844 788.65625 627.929688 793.265625 624.425781 L 799.125 608.253906 C 825.726562 534.78125 896.585938 490.09375 970.753906 493.367188 C 971.019531 493.378906 971.285156 493.394531 971.550781 493.40625 C 974.003906 493.527344 976.460938 493.699219 978.917969 493.925781 C 979.464844 493.976562 980.015625 494.03125 980.566406 494.085938 C 994.578125 495.5 1008.644531 498.644531 1022.488281 503.65625 L 1043.839844 511.382812 Z M 1060.074219 517.25 " fill-opacity="1" fill-rule="nonzero"/></g><path fill="#2c6e49" d="M 473.023438 1091.046875 C 467.382812 1089.578125 469.789062 1080.855469 475.433594 1082.316406 C 485.355469 1084.894531 495.398438 1086.964844 505.378906 1089.269531 C 515.378906 1091.582031 525.617188 1092.550781 535.632812 1094.742188 C 545.246094 1096.839844 554.285156 1100.925781 563.910156 1102.964844 C 573.921875 1105.085938 584.222656 1105.570312 594.332031 1107.058594 C 612.207031 1109.6875 630.082031 1112.300781 647.957031 1114.871094 C 657.042969 1116.179688 666.078125 1116.265625 675.234375 1116.277344 C 684.253906 1116.28125 693.253906 1116.914062 702.273438 1117.0625 C 720.25 1117.355469 738.34375 1118.699219 756.3125 1117.746094 C 774.316406 1116.792969 792.324219 1115.8125 810.320312 1114.761719 C 819.578125 1114.222656 828.871094 1114.671875 838.117188 1113.882812 C 846.84375 1113.136719 855.5625 1112.097656 864.257812 1111.042969 C 882.160156 1108.875 900.054688 1105.882812 917.625 1101.84375 C 926.03125 1099.910156 934.355469 1098.476562 942.960938 1097.84375 C 951.882812 1097.191406 960.4375 1095.984375 969.195312 1094.171875 C 977.847656 1092.378906 986.683594 1090.875 995.175781 1088.417969 C 1003.363281 1086.050781 1011.222656 1082.695312 1019.523438 1080.679688 C 1025.195312 1079.304688 1027.589844 1088.03125 1021.933594 1089.40625 C 1012.566406 1091.679688 1003.742188 1095.695312 994.394531 1098.003906 C 984.519531 1100.441406 974.46875 1102.351562 964.5 1104.34375 C 954.839844 1106.277344 945.085938 1106.394531 935.335938 1107.582031 C 925.566406 1108.769531 916.078125 1111.714844 906.433594 1113.574219 C 888.640625 1117 870.609375 1119.46875 852.605469 1121.433594 C 834.402344 1123.421875 816.164062 1123.625 797.890625 1124.582031 C 788.902344 1125.046875 779.894531 1125.257812 770.910156 1125.839844 C 761.667969 1126.433594 752.460938 1127.15625 743.191406 1127.085938 C 724.734375 1126.949219 706.109375 1126.605469 687.675781 1125.664062 C 678.640625 1125.203125 669.601562 1125.578125 660.570312 1125.171875 C 651.628906 1124.769531 642.796875 1123.1875 633.980469 1121.761719 C 615.640625 1118.804688 597.09375 1116.292969 578.640625 1114.1875 C 569.871094 1113.1875 561.230469 1111.984375 552.785156 1109.347656 C 544.390625 1106.726562 536.230469 1103.910156 527.546875 1102.371094 C 509.230469 1099.125 491.042969 1095.722656 473.023438 1091.046875 Z M 526.761719 507.835938 C 537.199219 514.105469 546.269531 522.347656 556.828125 528.4375 C 567.644531 534.679688 578.683594 539.929688 588.371094 547.949219 C 597.460938 555.472656 606.378906 562.675781 616.308594 569.085938 C 626.988281 575.976562 636.738281 583.679688 646.410156 591.910156 C 657.183594 601.082031 668.957031 608.996094 679.628906 618.261719 C 682.914062 621.113281 687.734375 616.332031 684.429688 613.460938 C 675.015625 605.285156 664.570312 598.414062 655.042969 590.367188 C 645.433594 582.25 636.007812 573.9375 625.503906 566.972656 C 615.144531 560.105469 605.207031 553.304688 595.703125 545.273438 C 586.359375 537.371094 576.414062 531.382812 565.671875 525.582031 C 553.058594 518.773438 542.421875 509.320312 530.1875 501.976562 C 526.433594 499.722656 523.015625 505.585938 526.761719 507.835938 Z M 824.015625 625.367188 C 834.742188 618.214844 846.191406 612.199219 857.078125 605.289062 C 868.058594 598.324219 879.347656 592 890.890625 586.011719 C 896.929688 582.875 902.964844 579.980469 909.402344 577.742188 C 915.355469 575.671875 921.34375 573.773438 927.132812 571.265625 C 933.050781 568.707031 938.792969 565.761719 944.664062 563.101562 C 950.863281 560.296875 957.292969 558.015625 963.65625 555.617188 C 977.941406 550.226562 992.515625 545.972656 1007.242188 541.992188 C 1011.457031 540.855469 1009.671875 534.304688 1005.441406 535.449219 C 979.460938 542.46875 954.351562 551.070312 929.992188 562.542969 C 918.25 568.070312 905.570312 571.117188 893.933594 576.863281 C 881.808594 582.855469 869.78125 589.269531 858.324219 596.464844 C 845.855469 604.296875 832.835938 611.339844 820.589844 619.5 C 816.972656 621.917969 820.367188 627.796875 824.015625 625.367188 Z M 634.765625 291.152344 C 644.125 299.570312 653.699219 307.636719 662.328125 316.820312 C 671.117188 326.179688 679.386719 335.949219 688.4375 345.0625 C 692.800781 349.453125 697.046875 353.9375 700.6875 358.960938 C 704.355469 364.019531 707.585938 369.378906 710.964844 374.632812 C 717.847656 385.328125 726.167969 395.007812 732.933594 405.777344 C 735.253906 409.464844 741.128906 406.0625 738.796875 402.351562 C 731.90625 391.386719 723.445312 381.519531 716.453125 370.617188 C 709.703125 360.09375 702.996094 350.144531 694.175781 341.207031 C 685.175781 332.089844 676.847656 322.449219 668.121094 313.082031 C 659.191406 303.496094 649.292969 295.097656 639.566406 286.355469 C 636.328125 283.441406 631.511719 288.222656 634.765625 291.152344 Z M 834.582031 440.863281 C 846.175781 432.199219 857.96875 423.875 870.78125 417.105469 C 876.691406 413.980469 882.675781 411.015625 888.285156 407.371094 C 893.914062 403.710938 899.292969 399.636719 905.273438 396.550781 C 917.90625 390.035156 931.546875 384.035156 945.484375 381.078125 C 959.6875 378.0625 973.195312 372.976562 987.261719 369.464844 C 991.5 368.410156 989.703125 361.863281 985.457031 362.921875 C 971.390625 366.429688 957.878906 371.519531 943.679688 374.53125 C 929.542969 377.53125 915.929688 383.746094 903.003906 390.109375 C 896.960938 393.082031 891.546875 397.09375 885.945312 400.792969 C 880.1875 404.605469 874.058594 407.71875 867.957031 410.929688 C 854.929688 417.789062 842.9375 426.199219 831.160156 435 C 827.699219 437.589844 831.078125 443.484375 834.582031 440.863281 Z M 834.582031 279.015625 C 839.402344 271.910156 845.558594 265.933594 851.832031 260.125 C 858.128906 254.304688 864.300781 248.351562 870.601562 242.535156 C 884.21875 229.960938 899.917969 220.199219 915.441406 210.183594 C 919.101562 207.820312 915.703125 201.945312 912.015625 204.320312 C 896 214.65625 879.847656 224.769531 865.796875 237.734375 C 859.335938 243.695312 852.996094 249.789062 846.554688 255.765625 C 840.003906 261.84375 833.75 268.171875 828.714844 275.589844 C 826.257812 279.214844 832.140625 282.613281 834.582031 279.015625 Z M 735.3125 104.515625 C 740.902344 111.476562 747.460938 117.691406 752.320312 125.214844 C 757.539062 133.304688 762.460938 141.753906 766.558594 150.46875 C 770.46875 158.773438 772.261719 167.855469 775.277344 176.492188 C 778.390625 185.40625 782.425781 193.96875 784.632812 203.1875 C 785.652344 207.433594 792.203125 205.636719 791.183594 201.382812 C 788.917969 191.949219 784.738281 183.195312 781.609375 174.050781 C 778.519531 165.035156 776.5 155.703125 772.421875 147.042969 C 768.242188 138.15625 763.246094 129.449219 757.835938 121.25 C 752.695312 113.46875 745.933594 106.964844 740.113281 99.71875 C 737.375 96.308594 732.601562 101.140625 735.3125 104.515625 Z M 735.3125 104.515625 " fill-opacity="1" fill-rule="nonzero"/></svg>